Patient4_TMGait_0pt4_02_left_02_EMG.mot
version=1
nRows=29
nColumns=33
inDegrees=no
endheader
time	1LAddLong	2LGlutMax	3LGlutMed	4LIliopsoas	5LSemiMemb	6LBicFemLong	7LRecFem	8LVastMed	9LVastLat	10LGasMed	11LTibAnt	12lTibPost	13LPeroneusLong	14LSol	15LExtDigLong	16LFlexDigLong	17RAddLong	18RGlutMax	19RGlutMed	20RIliopsoas	21RSemiMemb	22RBicFemLong	23RRecFem	24RVastMed	25RVastLat	26RGasMed	27RTibAnt	28RTibPost	29RPeroneusLong	30RSol	31RExtDigLong	32RFlexDigLong
3.988	0.001526	-0.17899	0.052948	0.017548	-0.083466	-0.030518	-0.1033	0.000305	0.034027	-0.033417	0.040436	0.014954	-0.015259	-0.061798	-0.0177	0.007629	0.008087	-0.11398	0.2739	0.047913	-0.084229	-0.047913	0.001526	-0.014191	0.42618	0.007477	0.28442	-0.009308	0.044403	-0.15442	-0.001526	-0.009766
3.989	0.00885	-0.1683	-0.037079	-0.009766	-0.026093	-0.043335	-0.093231	0.003357	0.021667	-0.047455	0.051422	0.005493	-0.030975	-0.047607	-0.35309	-0.002747	0.008087	-0.076141	-0.1062	0.063477	-0.075073	-0.040588	-0.004272	-0.01709	0.45548	-0.005341	0.31677	-0.012054	0.017242	-0.092621	-0.000916	-0.009613
3.99	0.02243	-0.18433	-0.058136	-0.001526	0.09491	-0.063934	-0.095062	0.004425	0.011902	-0.046082	0.010223	-0.003662	-0.043793	-0.046082	-0.18646	-0.011749	-0.007935	-0.12253	-0.13825	0.001373	-0.002289	-0.02594	-0.024872	-0.042725	0.2771	-0.014343	0.27939	-0.005493	-0.077667	-0.032196	-0.001984	-0.015106
3.991	0.014496	-0.19043	0.001068	0.003357	0.090179	-0.024261	-0.082397	0.010986	0.020599	-0.068817	-0.011139	0.013733	-0.016632	-0.070038	-0.12894	-0.001984	-0.001984	-0.16403	-0.025635	-0.056	0.026245	-0.016327	-0.02594	-0.12985	0.18829	-0.00412	0.33295	-0.007019	-0.088043	0.096741	-0.002747	-0.010529
3.992	0.007782	-0.19669	0.050049	0.001678	0.055847	0.009308	-0.088654	0.007629	0.006866	-0.069733	-0.058441	-0.019531	0.014343	-0.062256	-0.066071	-0.006561	0.006714	-0.18341	0.12619	-0.067596	0.008392	-0.011444	-0.051422	-0.041351	0.12482	-0.007477	0.036316	0.000763	-0.09079	0.11276	-0.000305	-0.00824
3.993	0.011139	-0.22598	-0.03067	-0.003204	0.014343	0.045624	-0.078125	0.004272	-0.002289	-0.052338	-0.025787	-0.001373	-0.031128	-0.044556	-0.034027	-0.008087	0.020294	-0.17349	-0.13718	0.045166	-0.008545	-0.031281	0.10361	0.055847	-0.23895	-0.006104	-0.17364	0.002899	-0.1033	0.080872	-0.00061	-0.005035
3.994	0.009918	-0.19196	-0.024872	-0.00351	-0.019379	0.086212	-0.08728	0.006409	0.004272	-0.024109	0.12726	0.009308	-0.075226	-0.050659	-0.022125	-0.010376	0.022278	-0.17609	0.11124	0.10056	-0.014954	-0.036774	0.19913	-0.14114	-0.58746	-0.014343	-0.075989	0.000916	-0.22385	-0.016785	-0.002899	0.002899
3.995	-0.00885	-0.20142	-0.049591	0.011444	-0.06012	0.10696	-0.074768	0.012054	0.001526	-0.022888	0.1799	0.011139	-0.007782	-0.092468	-0.001831	0.001373	0.008698	-0.17166	0.16876	0.070953	0.000153	-0.013428	0.082855	-0.075989	-0.59616	-0.012665	0.01297	0.009613	-0.18158	-0.031128	-0.002289	-0.00061
3.996	-0.000916	-0.2092	-0.040283	0.002899	-0.11215	0.080719	-0.077057	0.008698	0.004578	-0.019531	0.12299	0.005646	0.002747	-0.093994	0.025482	-0.00473	0.005493	-0.2005	-0.040131	0.038605	-0.014343	-0.023651	0.11459	0.028381	-0.20462	-0.007629	0.29037	0.011749	-0.090942	-0.041504	-0.000458	-0.003204
3.997	0.007324	-0.20371	0.042267	-0.00412	-0.067291	0.009003	-0.075531	0.015259	0.003204	-0.016785	-0.048981	-0.009003	-0.019989	-0.098572	0.042725	-0.010223	0.00351	-0.23987	-0.032806	0.045776	0.003815	-0.022888	0.37094	-0.051575	-0.085449	-0.007629	0.2301	0.010376	-0.11429	-0.30243	0.000763	-0.000305
3.998	0.018311	-0.19684	0.032654	0.007782	0.046234	-0.045013	-0.092468	0.007477	-0.001526	-0.033417	-0.12451	0.001373	-0.029907	-0.087585	0.049286	-0.018616	0.00351	-0.25207	-0.18295	0.039063	0.018158	-0.011292	0.26138	0.033722	0.053711	-0.002441	-0.38025	0.004425	0.11017	-0.53528	-0.000916	0.001373
3.999	0.026703	-0.19211	-0.010681	0.005798	0.051575	-0.12604	-0.091705	0.002594	-0.00351	-0.05188	-0.11292	-0.002594	-0.003967	-0.080566	0.036926	-0.00351	-0.023041	-0.32303	-0.27939	-0.099792	0.026398	0.017242	0.091705	0.15381	0.13657	-0.006409	-0.74936	-0.06134	0.17334	-0.20615	-0.001221	-0.003357
4	0.01709	-0.2005	-0.098877	0.011749	0.098114	-0.088348	-0.093384	0.00351	-0.002289	-0.046387	-0.060425	-0.010223	-0.00351	-0.051422	0.036469	0.003967	0	-0.2887	-0.080414	-0.10468	0.016327	-0.010376	0.22644	0.058289	-0.047302	0.002136	-0.16235	-0.027161	0.20325	0.22842	-0.000916	0.002899
4.001	0.026093	-0.21988	-0.12482	0.007782	0.041199	-0.014954	-0.10452	0.001678	0.011902	-0.050964	-0.010529	0.016632	-0.023804	-0.049896	0.036926	-0.004425	0.010223	-0.28915	-0.18906	-0.090332	0.020142	-0.024567	0.14832	-0.081177	-0.20477	0.001984	0.34256	0.048065	0.20035	0.31113	-0.003052	-0.005188
4.002	0.024261	-0.21164	-0.1413	0.005035	0.002747	-0.002441	-0.11383	-0.001221	0.00946	-0.045319	-0.010834	-0.007935	-0.002747	-0.071716	0.03006	-0.00824	0.015869	-0.26062	-0.26764	0.026093	0.018005	0.00061	-0.159	-0.16052	-0.17364	-0.000458	0.56732	0.018005	0.14557	0.14572	-0.010376	-0.009155
4.003	0.014191	-0.20371	-0.088806	0.010986	0.009308	-0.01358	-0.09491	-0.000305	0.006866	-0.058441	-0.009766	0.000763	0.006104	-0.090179	0.15533	-0.006866	-0.009308	-0.31647	0.35111	0.12024	-0.016937	0.030518	-0.43915	-0.014954	-0.12665	0.005035	-0.31586	0.007782	0.13367	-0.069885	-0.005341	-0.007019
4.004	0.014191	-0.19348	0.020599	-0.006561	0.00061	0.003357	-0.10376	0.002747	0.005646	-0.039215	-0.009766	0.001373	-0.005341	-0.071106	0.08316	0.003967	-0.015869	-0.27985	0.45334	0.095673	-0.090027	0.018921	-0.56686	0.070953	0.078278	0.004883	-0.68848	0.002899	-0.005951	-0.08667	-0.007935	-0.012207
4.005	0.018005	-0.21149	-0.013123	0.014954	-0.006714	0.009308	-0.10498	0.010376	-0.002747	-0.039673	-0.003052	-0.011292	-0.000153	-0.055542	0.01358	0.001984	-0.003662	-0.34302	-0.054932	0.12222	0.01358	-0.043945	-0.42572	0.07309	0.12573	-0.021057	-0.23407	0.001068	-0.31906	0.15259	-0.000458	-0.015869
4.006	0.008698	-0.1886	-0.054779	0.011292	-0.019226	0.004578	-0.10834	0.013123	-0.008087	-0.023956	0.00946	-0.009308	0.008698	-0.057373	-0.017242	0.001526	0.005493	-0.29144	-0.18295	0.053864	0.031281	-0.06897	-0.24063	0.054016	0.14206	-0.011139	0.30945	-0.001221	-0.16251	0.036774	-0.00473	-0.01358
4.007	0.002136	-0.18814	-0.067902	0.004272	-0.021973	-0.027771	-0.098877	0.006256	-0.003357	-0.03067	0.002899	-0.018768	-0.010834	-0.057526	-0.011139	0.000305	-0.00061	-0.26443	-0.16312	-0.033569	0.013275	-0.050812	-0.096283	-0.024261	0.086517	-0.007324	-0.27741	0.000305	-0.003815	0.015259	-0.001068	-0.016174
4.008	0.009766	-0.1651	0.027924	0.012512	-0.037689	-0.037994	-0.10925	0.005035	-0.006866	-0.029907	0.0177	-0.000305	-0.010376	-0.039215	-0.005035	-0.001984	-0.00061	-0.28915	0.090332	0.009003	0.005035	-0.045471	0.13062	0.14267	0.097961	-0.009613	-0.67352	0.002747	0.026398	0.11734	0.00061	-0.007782
4.009	0.00412	-0.18707	0.023804	0.010529	-0.002594	-0.034332	-0.12833	0.009918	0.000153	-0.034637	0.008392	-0.006561	-0.002136	-0.052795	0.00351	0.000458	0.003357	-0.29404	0.12558	-0.017548	0.000458	-0.037079	0.17944	0.13519	0.009003	-0.00824	-0.50171	0.006561	0.061035	0.11673	0.003204	-0.010529
4.01	0.011444	-0.16861	0.00824	0.010223	-0.019989	-0.030212	-0.12238	0.011139	0.006866	-0.037842	0.007477	-0.010681	0.003357	-0.049591	0.003662	0.002136	0.005798	-0.32547	0.13825	-0.002594	0.005646	0.000916	0.14008	0.086823	-0.032043	-0.00946	-0.59296	-0.000153	0.021515	0.04715	0.001678	-0.009613
4.011	0.005188	-0.17517	-0.002747	0.00351	-0.027161	-0.00946	-0.12222	-0.000305	-0.008087	-0.035095	0.023956	-0.003815	-0.009613	-0.033569	0	-0.001831	0.000305	-0.30151	-0.070343	0.009155	0.013428	-0.012817	0.06012	0.047455	0.10819	-0.016327	-0.49576	0.000153	-0.057983	0.062561	-0.002136	-0.009155
4.012	0.011292	-0.19318	0.028229	0.003052	-0.032959	0.017853	-0.12497	0.016479	-0.006256	-0.038757	0.014954	-0.035248	-0.007629	-0.045624	0.006561	0.006256	0.016479	-0.30441	0.12177	-0.055237	0.009155	-0.016022	0.12222	0.007629	0.089264	-0.018768	-0.2475	0.001831	-0.12543	0.07309	-0.003357	-0.012512
4.013	0.013428	-0.17014	-0.024719	0.005951	-0.027161	0.013275	-0.10605	0.003204	0.007935	-0.028076	0.001526	-0.029755	-0.023499	-0.043182	0.002899	0.001526	0.005798	-0.23987	0.22614	-0.10803	0.001984	-0.001984	0.21103	-0.074005	0.057068	-0.021057	0.048828	0.000458	-0.17044	0.082092	-0.00351	-0.014496
4.014	0.014648	-0.18814	-0.075684	0.012207	-0.006104	-0.008698	-0.12238	0.004272	-0.002289	-0.034332	0.016022	-0.002747	-0.016785	-0.041809	0.013275	0.000305	0.003052	-0.27969	0.19424	-0.084686	0.001526	-0.001373	0.25528	-0.037079	0.021057	-0.001526	0.38025	-0.003815	-0.00473	0.016479	-0.003357	-0.000153
4.015	0.011597	-0.17654	-0.10025	-0.002136	-0.006409	0.022888	-0.1326	0.004272	0.020142	-0.026855	0.009003	-0.007782	-0.020447	-0.05127	0.007629	0.012512	-0.000305	-0.25986	-0.063171	-0.012207	0.001831	-0.011444	0.089264	-0.045929	0.014191	0.009308	1.2167	0.00061	0.03952	-0.097351	-0.004578	0.00061
4.016	0.009766	-0.18295	-0.018005	0.014954	-0.023804	0.068054	-0.11887	0.01236	-0.005951	-0.022278	0.019073	-0.014496	0.005341	-0.033722	0.013275	0.008087	-0.001221	-0.32486	-0.33157	0.001984	-0.000153	0.001984	-0.1149	0.015869	0.027771	-0.001068	0.68512	-0.000305	-0.2948	-0.051117	-0.005188	-0.007935
